ffmpeg started on 2016-11-30 at 19:40:23
Report written to "Output/x264/results/ffmpeg/old_town_cross_2160p50fast9000k.log"
Command line:
Tools/ffmpeg/ffmpeg -benchmark -y -i Input/y4m/old_town_cross_2160p50.y4m -c:v libx264 -preset fast -b:v 9000k -an Output/x264/encoded/old_town_cross_2160p50fast9000k.mkv
ffmpeg version N-82227-gdb23fde Copyright (c) 2000-2016 the FFmpeg developers
  built with gcc 5.4.0 (Ubuntu 5.4.0-6ubuntu1~16.04.2) 20160609
  configuration: --prefix=/home/jaroslav/ffmpeg_build --pkg-config-flags=--static --extra-cflags=-I/home/jaroslav/ffmpeg_build/include --extra-ldflags=-L/home/jaroslav/ffmpeg_build/lib --bindir=/home/jaroslav/bin --enable-gpl --enable-libass --enable-libfdk-aac --enable-libfreetype --enable-libmp3lame --enable-libopus --enable-libtheora --enable-libvorbis --enable-libvpx --enable-libx264 --enable-libx265 --enable-nvenc --enable-libmfx --enable-libxvid --enable-libgsm --enable-libopencore-amrnb --enable-version3 --enable-nonfree
  libavutil      55. 35.100 / 55. 35.100
  libavcodec     57. 66.101 / 57. 66.101
  libavformat    57. 57.100 / 57. 57.100
  libavdevice    57.  2.100 / 57.  2.100
  libavfilter     6. 66.100 /  6. 66.100
  libswscale      4.  3.100 /  4.  3.100
  libswresample   2.  4.100 /  2.  4.100
  libpostproc    54.  2.100 / 54.  2.100
Input #0, yuv4mpegpipe, from 'Input/y4m/old_town_cross_2160p50.y4m':
  Duration: 00:00:10.00, start: 0.000000, bitrate: 4976642 kb/s
    Stream #0:0: Video: rawvideo (I420 / 0x30323449), yuv420p(progressive), 3840x2160, SAR 1:1 DAR 16:9, 50 fps, 50 tbr, 50 tbn, 50 tbc
[libx264 @ 0x2938120] using SAR=1/1
[libx264 @ 0x2938120] using cpu capabilities: MMX2 SSE2Fast SSSE3 SSE4.2 AVX FMA3 AVX2 LZCNT BMI2
[libx264 @ 0x2938120] profile High, level 5.2
[libx264 @ 0x2938120] 264 - core 148 - H.264/MPEG-4 AVC codec - Copyleft 2003-2016 - http://www.videolan.org/x264.html - options: cabac=1 ref=2 deblock=1:0:0 analyse=0x3:0x113 me=hex subme=6 psy=1 psy_rd=1.00:0.00 mixed_ref=1 me_range=16 chroma_me=1 trellis=1 8x8dct=1 cqm=0 deadzone=21,11 fast_pskip=1 chroma_qp_offset=-2 threads=6 lookahead_threads=1 sliced_threads=0 nr=0 decimate=1 interlaced=0 bluray_compat=0 constrained_intra=0 bframes=3 b_pyramid=2 b_adapt=1 b_bias=0 direct=1 weightb=1 open_gop=0 weightp=1 keyint=250 keyint_min=25 scenecut=40 intra_refresh=0 rc_lookahead=30 rc=abr mbtree=1 bitrate=9000 ratetol=1.0 qcomp=0.60 qpmin=0 qpmax=69 qpstep=4 ip_ratio=1.40 aq=1:1.00
Output #0, matroska, to 'Output/x264/encoded/old_town_cross_2160p50fast9000k.mkv':
  Metadata:
    encoder         : Lavf57.57.100
    Stream #0:0: Video: h264 (libx264) (H264 / 0x34363248), yuv420p, 3840x2160 [SAR 1:1 DAR 16:9], q=-1--1, 9000 kb/s, 50 fps, 1k tbn, 50 tbc
    Metadata:
      encoder         : Lavc57.66.101 libx264
    Side data:
      cpb: bitrate max/min/avg: 0/0/9000000 buffer size: 0 vbv_delay: -1
Stream mapping:
  Stream #0:0 -> #0:0 (rawvideo (native) -> h264 (libx264))
Press [q] to stop, [?] for help
frame=   37 fps= 20 q=0.0 size=       0kB time=00:00:00.00 bitrate=N/A speed=   0x    frame=   46 fps= 19 q=39.0 size=       1kB time=00:00:00.06 bitrate=  96.3kbits/s speed=0.0249x    frame=   54 fps= 18 q=41.0 size=       1kB time=00:00:00.22 bitrate=  26.6kbits/s speed=0.0746x    frame=   65 fps= 19 q=36.0 size=       1kB time=00:00:00.44 bitrate=  13.3kbits/s speed=0.127x    frame=   73 fps= 18 q=35.0 size=       1kB time=00:00:00.60 bitrate=   9.8kbits/s speed=0.149x    frame=   80 fps= 18 q=35.0 size=       1kB time=00:00:00.74 bitrate=   7.9kbits/s speed=0.162x    frame=   88 fps= 17 q=35.0 size=       1kB time=00:00:00.90 bitrate=   6.5kbits/s speed=0.176x    frame=   97 fps= 17 q=34.0 size=       1kB time=00:00:01.08 bitrate=   5.4kbits/s speed=0.19x    frame=  105 fps= 17 q=34.0 size=       1kB time=00:00:01.24 bitrate=   4.7kbits/s speed= 0.2x    frame=  112 fps= 17 q=34.0 size=       1kB time=00:00:01.38 bitrate=   4.3kbits/s speed=0.206x    frame=  120 fps= 16 q=34.0 size=       1kB time=00:00:01.54 bitrate=   3.8kbits/s speed=0.212x    frame=  129 fps= 16 q=34.0 size=       1kB time=00:00:01.72 bitrate=   3.4kbits/s speed=0.22x    frame=  137 fps= 16 q=34.0 size=       1kB time=00:00:01.88 bitrate=   3.1kbits/s speed=0.225x    frame=  143 fps= 16 q=34.0 size=       1kB time=00:00:02.00 bitrate=   2.9kbits/s speed=0.225x    frame=  151 fps= 16 q=34.0 size=       1kB time=00:00:02.16 bitrate=   2.7kbits/s speed=0.228x    frame=  160 fps= 16 q=34.0 size=       1kB time=00:00:02.34 bitrate=   2.5kbits/s speed=0.234x    frame=  168 fps= 16 q=34.0 size=       1kB time=00:00:02.50 bitrate=   2.3kbits/s speed=0.237x    frame=  176 fps= 16 q=34.0 size=       1kB time=00:00:02.66 bitrate=   2.2kbits/s speed=0.238x    frame=  185 fps= 16 q=34.0 size=       1kB time=00:00:02.84 bitrate=   2.1kbits/s speed=0.243x    frame=  192 fps= 16 q=34.0 size=       1kB time=00:00:02.98 bitrate=   2.0kbits/s speed=0.243x    frame=  199 fps= 16 q=34.0 size=       1kB time=00:00:03.12 bitrate=   1.9kbits/s speed=0.244x    frame=  208 fps= 16 q=34.0 size=       1kB time=00:00:03.30 bitrate=   1.8kbits/s speed=0.248x    frame=  216 fps= 16 q=34.0 size=       1kB time=00:00:03.46 bitrate=   1.7kbits/s speed=0.249x    frame=  223 fps= 15 q=34.0 size=       1kB time=00:00:03.60 bitrate=   1.6kbits/s speed=0.249x    frame=  231 fps= 15 q=34.0 size=       1kB time=00:00:03.76 bitrate=   1.6kbits/s speed=0.251x    frame=  241 fps= 15 q=34.0 size=       1kB time=00:00:03.96 bitrate=   1.5kbits/s speed=0.254x    frame=  248 fps= 15 q=34.0 size=       1kB time=00:00:04.10 bitrate=   1.4kbits/s speed=0.254x    frame=  252 fps= 15 q=34.0 size=       1kB time=00:00:04.18 bitrate=   1.4kbits/s speed=0.245x    frame=  254 fps= 14 q=34.0 size=       1kB time=00:00:04.22 bitrate=   1.4kbits/s speed=0.239x    frame=  256 fps= 14 q=34.0 size=       1kB time=00:00:04.26 bitrate=   1.4kbits/s speed=0.233x    frame=  261 fps= 14 q=34.0 size=       1kB time=00:00:04.36 bitrate=   1.3kbits/s speed=0.231x    frame=  266 fps= 14 q=34.0 size=       1kB time=00:00:04.46 bitrate=   1.3kbits/s speed=0.229x    frame=  271 fps= 14 q=34.0 size=       1kB time=00:00:04.56 bitrate=   1.3kbits/s speed=0.227x    frame=  276 fps= 13 q=34.0 size=       1kB time=00:00:04.66 bitrate=   1.3kbits/s speed=0.226x    frame=  281 fps= 13 q=34.0 size=    5123kB time=00:00:04.76 bitrate=8815.6kbits/s speed=0.224x    frame=  286 fps= 13 q=35.0 size=    5123kB time=00:00:04.86 bitrate=8634.3kbits/s speed=0.223x    frame=  295 fps= 13 q=35.0 size=    5422kB time=00:00:05.04 bitrate=8810.5kbits/s speed=0.225x    frame=  301 fps= 13 q=35.0 size=    5422kB time=00:00:05.16 bitrate=8605.6kbits/s speed=0.225x    frame=  310 fps= 13 q=35.0 size=    5422kB time=00:00:05.34 bitrate=8315.6kbits/s speed=0.227x    frame=  320 fps= 13 q=35.0 size=    5422kB time=00:00:05.54 bitrate=8015.4kbits/s speed=0.23x    frame=  328 fps= 13 q=35.0 size=    5422kB time=00:00:05.70 bitrate=7790.5kbits/s speed=0.232x    frame=  336 fps= 13 q=35.0 size=    5422kB time=00:00:05.86 bitrate=7577.8kbits/s speed=0.234x    frame=  343 fps= 13 q=35.0 size=    5422kB time=00:00:06.00 bitrate=7401.0kbits/s speed=0.234x    frame=  350 fps= 13 q=35.0 size=    5422kB time=00:00:06.14 bitrate=7232.3kbits/s speed=0.235x    frame=  360 fps= 13 q=35.0 size=    5422kB time=00:00:06.34 bitrate=7004.2kbits/s speed=0.236x    frame=  369 fps= 13 q=34.0 size=    5422kB time=00:00:06.52 bitrate=6810.9kbits/s speed=0.238x    frame=  377 fps= 13 q=34.0 size=    5422kB time=00:00:06.68 bitrate=6647.7kbits/s speed=0.238x    frame=  385 fps= 13 q=34.0 size=    5422kB time=00:00:06.84 bitrate=6492.3kbits/s speed=0.24x    frame=  393 fps= 14 q=34.0 size=    5422kB time=00:00:07.00 bitrate=6343.9kbits/s speed=0.241x    frame=  402 fps= 14 q=34.0 size=    5422kB time=00:00:07.18 bitrate=6184.9kbits/s speed=0.243x    frame=  408 fps= 14 q=34.0 size=    5422kB time=00:00:07.30 bitrate=6083.2kbits/s speed=0.243x    frame=  417 fps= 14 q=34.0 size=    5422kB time=00:00:07.48 bitrate=5936.9kbits/s speed=0.244x    frame=  425 fps= 14 q=34.0 size=    5422kB time=00:00:07.64 bitrate=5812.5kbits/s speed=0.245x    frame=  432 fps= 14 q=34.0 size=    5422kB time=00:00:07.78 bitrate=5708.0kbits/s speed=0.245x    frame=  441 fps= 14 q=34.0 size=    5422kB time=00:00:07.96 bitrate=5578.9kbits/s speed=0.246x    frame=  449 fps= 14 q=34.0 size=    5422kB time=00:00:08.12 bitrate=5469.0kbits/s speed=0.247x    frame=  456 fps= 14 q=34.0 size=    5422kB time=00:00:08.26 bitrate=5376.3kbits/s speed=0.247x    frame=  464 fps= 14 q=34.0 size=    5422kB time=00:00:08.42 bitrate=5274.1kbits/s speed=0.248x    frame=  473 fps= 14 q=34.0 size=    5422kB time=00:00:08.60 bitrate=5163.8kbits/s speed=0.248x    frame=  482 fps= 14 q=34.0 size=    5422kB time=00:00:08.78 bitrate=5057.9kbits/s speed=0.25x    frame=  489 fps= 14 q=34.0 size=    5422kB time=00:00:08.92 bitrate=4978.5kbits/s speed=0.25x    frame=  493 fps= 13 q=34.0 size=    5422kB time=00:00:09.00 bitrate=4934.3kbits/s speed=0.245x    frame=  495 fps= 13 q=34.0 size=    5422kB time=00:00:09.04 bitrate=4912.5kbits/s speed=0.242x    frame=  497 fps= 13 q=34.0 size=    5422kB time=00:00:09.08 bitrate=4890.8kbits/s speed=0.24x    frame=  500 fps= 12 q=-1.0 Lsize=   11171kB time=00:00:09.94 bitrate=9205.6kbits/s speed=0.245x    
video:11166kB audio:0kB subtitle:0kB other streams:0kB global headers:0kB muxing overhead: 0.040824%
bench: utime=137.696s
bench: maxrss=1606320kB
[libx264 @ 0x2938120] frame I:3     Avg QP:30.33  size:333096
[libx264 @ 0x2938120] frame P:183   Avg QP:32.45  size: 34119
[libx264 @ 0x2938120] frame B:314   Avg QP:34.26  size: 13346
[libx264 @ 0x2938120] consecutive B-frames: 16.0%  0.8%  0.0% 83.2%
[libx264 @ 0x2938120] mb I  I16..4:  7.8% 78.0% 14.2%
[libx264 @ 0x2938120] mb P  I16..4:  0.1%  0.4%  0.0%  P16..4: 31.3%  2.6%  2.9%  0.0%  0.0%    skip:62.7%
[libx264 @ 0x2938120] mb B  I16..4:  0.3%  0.3%  0.0%  B16..8: 13.1%  0.5%  0.0%  direct: 9.7%  skip:76.1%  L0:35.1% L1:64.4% BI: 0.5%
[libx264 @ 0x2938120] final ratefactor: 26.51
[libx264 @ 0x2938120] 8x8 transform intra:66.4% inter:85.5%
[libx264 @ 0x2938120] coded y,uvDC,uvAC intra: 47.4% 59.4% 34.1% inter: 5.5% 6.4% 0.0%
[libx264 @ 0x2938120] i16 v,h,dc,p: 43% 29% 17% 11%
[libx264 @ 0x2938120] i8 v,h,dc,ddl,ddr,vr,hd,vl,hu: 15% 17% 40%  4%  4%  4%  7%  4%  5%
[libx264 @ 0x2938120] i4 v,h,dc,ddl,ddr,vr,hd,vl,hu: 21% 27% 12%  7%  7%  6%  9%  5%  6%
[libx264 @ 0x2938120] i8c dc,h,v,p: 68% 14% 15%  2%
[libx264 @ 0x2938120] Weighted P-Frames: Y:0.5% UV:0.0%
[libx264 @ 0x2938120] ref P L0: 70.1% 29.9%
[libx264 @ 0x2938120] ref B L0: 90.2%  9.8%
[libx264 @ 0x2938120] ref B L1: 96.3%  3.7%
[libx264 @ 0x2938120] kb/s:9146.99
